HIERARCHY
ROOT Hips
{
 OFFSET 0.000000 0.000000 0.000000
 CHANNELS 6 Xposition Yposition Zposition Yrotation Xrotation Zrotation
 JOINT Chest
 {
  OFFSET 0.000000 13.173100 -0.061900
  CHANNELS 3 Yrotation Xrotation Zrotation
  JOINT Chest2
  {
   OFFSET 0.000000 8.040800 0.126200
   CHANNELS 3 Yrotation Xrotation Zrotation
   JOINT Chest3
   {
    OFFSET 0.000000 7.994400 0.000000
    CHANNELS 3 Yrotation Xrotation Zrotation
    JOINT Chest4
    {
     OFFSET 0.000000 7.986200 0.000000
     CHANNELS 3 Yrotation Xrotation Zrotation
     JOINT Neck
     {
      OFFSET 0.000000 12.259400 0.000000
      CHANNELS 3 Yrotation Xrotation Zrotation
      JOINT Head
      {
       OFFSET 0.000000 7.518700 0.267100
       CHANNELS 3 Yrotation Xrotation Zrotation
       End Site
       {
        OFFSET 0.000000 13.617700 0.141000
       }
      }
     }
     JOINT RightCollar
     {
      OFFSET -2.983800 8.314300 0.000000
      CHANNELS 3 Yrotation Xrotation Zrotation
      JOINT RightShoulder
      {
       OFFSET -16.133400 0.000000 0.000000
       CHANNELS 3 Yrotation Xrotation Zrotation
       JOINT RightElbow
       {
        OFFSET 0.000000 -29.822100 0.000000
        CHANNELS 3 Yrotation Xrotation Zrotation
        JOINT RightWrist
        {
         OFFSET 0.000000 -24.437700 0.010900
         CHANNELS 3 Yrotation Xrotation Zrotation
         End Site
         {
          OFFSET 0.000000 -18.312300 0.000000
         }
        }
       }
      }
     }
     JOINT LeftCollar
     {
      OFFSET 2.983800 8.314300 0.000000
      CHANNELS 3 Yrotation Xrotation Zrotation
      JOINT LeftShoulder
      {
       OFFSET 16.133400 0.000000 0.000000
       CHANNELS 3 Yrotation Xrotation Zrotation
       JOINT LeftElbow
       {
        OFFSET 0.000000 -29.822100 0.000000
        CHANNELS 3 Yrotation Xrotation Zrotation
        JOINT LeftWrist
        {
         OFFSET 0.000000 -24.437700 0.010900
         CHANNELS 3 Yrotation Xrotation Zrotation
         End Site
         {
          OFFSET 0.000000 -18.312300 0.000000
         }
        }
       }
      }
     }
    }
   }
  }
 }
 JOINT RightHip
 {
  OFFSET -11.206700 0.306200 0.030900
  CHANNELS 3 Yrotation Xrotation Zrotation
  JOINT RightKnee
  {
   OFFSET 0.000000 -57.334900 0.009400
   CHANNELS 3 Yrotation Xrotation Zrotation
   JOINT RightAnkle
   {
    OFFSET 0.000000 -43.376200 0.036600
    CHANNELS 3 Yrotation Xrotation Zrotation
    JOINT RightToe
    {
     OFFSET 0.000000 -10.035500 18.363100
     CHANNELS 3 Yrotation Xrotation Zrotation
     End Site
     {
      OFFSET 0.000000 -1.618500 7.239000
     }
    }
   }
  }
 }
 JOINT LeftHip
 {
  OFFSET 11.206700 0.306200 0.030900
  CHANNELS 3 Yrotation Xrotation Zrotation
  JOINT LeftKnee
  {
   OFFSET 0.000000 -57.334900 0.009400
   CHANNELS 3 Yrotation Xrotation Zrotation
   JOINT LeftAnkle
   {
    OFFSET 0.000000 -43.376200 0.036600
    CHANNELS 3 Yrotation Xrotation Zrotation
    JOINT LeftToe
    {
     OFFSET 0.000000 -10.035500 18.363100
     CHANNELS 3 Yrotation Xrotation Zrotation
     End Site
     {
      OFFSET 0.000000 -1.618500 7.239000
     }
    }
   }
  }
 }
}
MOTION
Frames: 8
Frame Time: 0.008333
-95.258884 66.830154 93.885432 175.245482 -38.459729 -4.164434 2.114966 21.551262 2.633099 0.224739 2.927974 0.304479 0.374172 4.764349 0.501832 1.720487 18.323709 2.165208 0.627264 13.497406 -0.400772 1.407092 -10.650443 -0.969647 -5.323602 -0.145716 -1.994093 -2.380239 -3.251272 3.146159 -127.223480 -83.684987 138.407720 -1.132047 -3.486850 11.412623 -4.123504 1.143496 -0.674587 8.837652 -1.146550 2.324788 134.572728 -73.641046 -147.543689 -7.958465 5.795509 -3.303427 -4.271798 -42.964122 3.637526 -134.512390 87.172828 -130.838059 -2.572954 -10.244621 -1.942507 -0.006982 0.379986 0.076573 -1.549806 -38.795631 5.386196 65.959594 82.735643 55.500735 -5.980227 -10.614076 9.517369 -0.058235 -0.047371 -0.025847
-95.254212 66.813461 93.860681 175.228972 -38.381108 -4.101749 2.133671 21.515928 2.619172 0.208535 2.901375 0.289070 0.386876 4.750036 0.519631 1.695126 18.301915 2.150936 0.646490 13.531023 -0.387457 1.436252 -10.603029 -0.964003 -5.339562 -0.126901 -1.995747 -2.373582 -3.281445 3.171895 -126.022833 -83.695266 137.153150 -1.124665 -3.417931 11.351406 -4.129924 1.136180 -0.668957 8.856367 -1.131304 2.332205 135.110040 -73.581646 -148.160783 -7.905956 5.735867 -3.388380 -4.204473 -43.096284 3.553595 -133.850460 87.044508 -130.195214 -2.505584 -10.155364 -1.854156 0.008771 0.217623 0.025015 -1.489556 -38.877951 5.313716 66.311307 82.716529 55.861327 -6.009700 -10.640364 9.518144 -0.054818 -0.035375 -0.028209
-95.251595 66.784847 93.839291 175.213543 -38.312935 -4.037106 2.133621 21.463146 2.578042 0.208495 2.898159 0.289987 0.382593 4.738389 0.517912 1.720810 18.265295 2.192697 0.654931 13.578225 -0.390709 1.413480 -10.586526 -0.979896 -5.370057 -0.091649 -2.020310 -2.383508 -3.307658 3.198121 -124.766358 -83.689591 135.849481 -1.119116 -3.336243 11.272112 -4.158522 1.119775 -0.668668 8.870117 -1.091124 2.319928 135.633089 -73.523354 -148.757064 -7.866737 5.700843 -3.466612 -4.075014 -43.232852 3.452585 -133.416335 86.909043 -129.746128 -2.470534 -10.054238 -1.768828 0.027649 0.067082 -0.003331 -1.373591 -38.960792 5.195951 66.642153 82.694693 56.243656 -6.022139 -10.668918 9.521575 -0.069830 -0.025871 -0.035424
-95.251159 66.741515 93.817794 175.203839 -38.272515 -3.971066 2.128909 21.435897 2.530633 0.209036 2.894496 0.294239 0.370718 4.730070 0.505672 1.740047 18.248708 2.221186 0.677462 13.597072 -0.386250 1.393751 -10.565781 -0.989666 -5.346482 -0.073698 -2.006032 -2.432412 -3.325854 3.205570 -123.532499 -83.668380 134.571382 -1.111430 -3.244112 11.167394 -4.180553 1.110099 -0.675846 8.898410 -1.104030 2.343406 136.036866 -73.469738 -149.228284 -7.846610 5.699366 -3.560495 -3.970930 -43.308458 3.358043 -132.916398 86.811210 -129.232672 -2.447815 -9.979243 -1.710874 0.059801 -0.036244 -0.027094 -1.292727 -39.016686 5.103846 66.988609 82.689785 56.606876 -6.029744 -10.717069 9.531765 -0.084960 0.000152 -0.043247
-95.249299 66.673946 93.802663 175.191750 -38.224458 -3.916345 2.130053 21.399586 2.493933 0.209202 2.889707 0.298540 0.370913 4.722053 0.509008 1.745343 18.233459 2.240207 0.701547 13.611447 -0.386158 1.407514 -10.531194 -1.000310 -5.349621 -0.058230 -2.017746 -2.457421 -3.333362 3.233726 -122.418168 -83.634368 133.414274 -1.097537 -3.138671 11.029543 -4.207962 1.105455 -0.689544 8.913142 -1.123340 2.358479 136.462435 -73.421189 -149.693890 -7.851042 5.748217 -3.696043 -3.877826 -43.379881 3.286193 -132.392899 86.737138 -128.676956 -2.434960 -9.912512 -1.678888 0.086957 -0.121551 -0.043894 -1.227886 -39.088133 5.035456 67.356987 82.698418 56.986832 -6.050476 -10.790529 9.540100 -0.085750 0.053800 -0.043926
-95.251686 66.584665 93.785994 175.156928 -38.206653 -3.832980 2.142553 21.392875 2.440070 0.213466 2.884518 0.302979 0.382411 4.713583 0.530027 1.729735 18.223099 2.244740 0.695578 13.622673 -0.406874 1.454782 -10.504919 -1.010162 -5.337520 -0.050857 -2.024770 -2.494326 -3.332220 3.250798 -121.445811 -83.594221 132.403796 -1.075034 -3.018485 10.855271 -4.231953 1.108273 -0.714226 8.897381 -1.196586 2.384247 136.806571 -73.394481 -150.030165 -7.891160 5.859931 -3.899396 -3.744529 -43.409000 3.200640 -131.720786 86.675144 -127.963995 -2.454074 -9.837384 -1.669527 0.121167 -0.213778 -0.030688 -1.140792 -39.134179 4.952721 67.726604 82.714585 57.362152 -6.073444 -10.873543 9.545267 -0.078160 0.117958 -0.040357
-95.261425 66.468945 93.774450 175.145376 -38.174849 -3.739695 2.119308 21.369182 2.352299 0.222711 2.894778 0.323111 0.371919 4.698661 0.514308 1.737077 18.219487 2.275877 0.725205 13.629352 -0.412562 1.480599 -10.493112 -1.040222 -5.306799 -0.056149 -2.029160 -2.542389 -3.327742 3.257118 -120.631664 -83.554297 131.553585 -1.049210 -2.884872 10.648657 -4.248956 1.102341 -0.742683 8.894037 -1.228968 2.382034 137.357435 -73.355377 -150.566243 -7.968563 6.028250 -4.200556 -3.638219 -43.414916 3.090091 -130.888797 86.659366 -127.095005 -2.490631 -9.793286 -1.702629 0.157568 -0.270120 0.020713 -1.065021 -39.202099 4.849537 68.091912 82.740384 57.725449 -6.115554 -10.990618 9.545600 -0.053389 0.225463 -0.027080
-95.270593 66.335654 93.764697 175.126964 -38.152252 -3.653318 2.104266 21.354286 2.276422 0.216835 2.901287 0.332665 0.377120 4.689250 0.508686 1.739883 18.226038 2.305768 0.755621 13.637136 -0.417369 1.516463 -10.489628 -1.075409 -5.275384 -0.070099 -2.041803 -2.581956 -3.326428 3.250755 -119.924634 -83.508661 130.806513 -1.026486 -2.741421 10.418066 -4.294450 1.109775 -0.759272 8.937950 -1.283536 2.355255 138.081753 -73.329662 -151.247064 -8.075174 6.248401 -4.626209 -3.565770 -43.389878 3.000809 -130.017249 86.676353 -126.191903 -2.530704 -9.779524 -1.755558 0.205463 -0.293511 0.062979 -1.004274 -39.264651 4.774336 68.563908 82.778978 58.185720 -6.185614 -11.140924 9.542606 -0.013396 0.359049 -0.004363
